<svg width="282" height="53" viewBox="0 0 282 53" fill="none" xmlns="http://www.w3.org/2000/svg">
<g clip-path="url(#clip0_8_1949)">
<path d="M49.1694 -0.196048C48.8608 -0.37408 48.493 -0.42481 48.1464 -0.337139C47.7999 -0.249467 47.5028 -0.0305332 47.3202 0.271754L37.6488 16.3632C37.5992 16.4466 37.5592 16.5352 37.5294 16.6273C36.4473 17.0213 35.4373 17.5849 34.5386 18.296C31.6082 13.4065 26.2389 10.3277 20.3731 10.3277C11.322 10.3277 3.95955 17.5484 3.93432 26.4318H1.80078L1.99155 27.9241C3.1017 36.5971 8.54786 44.1726 16.3786 48.1616V53.2827H36.5842C39.1454 53.2827 41.2291 51.2344 41.2291 48.7183V48.1623C49.0623 44.1714 54.506 36.5959 55.6186 27.9241L55.8094 26.4306H51.9565C51.9386 21.8964 48.978 18.0416 44.8599 16.5862L56.9263 5.18186C57.4629 4.67478 57.4802 3.83467 56.962 3.30763C56.8392 3.18216 56.6925 3.08167 56.5302 3.0119C56.3678 2.94214 56.1931 2.90447 56.0159 2.90104C55.8388 2.89762 55.6627 2.92851 55.4977 2.99195C55.3327 3.05539 55.182 3.15013 55.0543 3.27077L41.6131 15.9764C41.4925 15.9715 41.3725 15.9582 41.25 15.9582C41.1725 15.9582 41.098 15.9691 41.0217 15.9703L49.6457 1.62016C49.7359 1.47019 49.7951 1.30425 49.8199 1.13181C49.8448 0.959374 49.8348 0.783813 49.7906 0.615158C49.7464 0.446503 49.6687 0.288057 49.5621 0.148869C49.4556 0.00968122 49.3221 -0.107522 49.1694 -0.196048ZM20.3725 12.9804C25.5399 12.9804 30.25 15.8374 32.5928 20.3135C31.7387 21.4673 31.1331 22.78 30.8131 24.1714C29.7392 19.4764 25.4697 15.957 20.3725 15.957C14.4851 15.957 9.69555 20.652 9.67032 26.4312H6.63524C6.65986 19.011 12.8112 12.9804 20.3725 12.9804ZM20.3725 21.5936C17.6463 21.5936 15.4279 23.7604 15.4026 26.4312H12.3719C12.3971 22.1146 15.9743 18.6103 20.3725 18.6103C24.7719 18.6103 28.3528 22.1146 28.3755 26.4312H25.3411C25.3171 23.7604 23.0986 21.5936 20.3725 21.5936ZM22.6383 26.4318H18.1066C18.1187 25.8488 18.3627 25.2936 18.7865 24.8851C19.2102 24.4766 19.78 24.2473 20.3737 24.2463C20.9672 24.2475 21.5366 24.4769 21.9599 24.8854C22.3832 25.2939 22.6267 25.8491 22.6383 26.4318ZM52.6974 29.0845C51.1965 36.793 45.874 43.3646 38.4974 46.5123H34.1743V49.1656H38.4685C38.3674 49.5819 38.1266 49.9526 37.7849 50.2183C37.4433 50.4839 37.0205 50.6289 36.5848 50.63H19.0802V49.1656H24.1442V46.5123H19.1128C11.7362 43.3664 6.41309 36.793 4.91094 29.0845H52.6974ZM38.9848 26.4318C38.9967 25.849 39.2404 25.294 39.6638 24.8855C40.0872 24.4771 40.6565 24.2476 41.25 24.2463C41.844 24.2468 42.4142 24.4759 42.8382 24.8845C43.2623 25.293 43.5064 25.8485 43.5183 26.4318H38.9848ZM41.25 18.6109C45.6512 18.6109 49.2334 22.1152 49.2568 26.4318H46.2205C46.1959 23.761 43.9768 21.5942 41.25 21.5942C38.5239 21.5942 36.3072 23.761 36.2826 26.4318H33.2494C33.274 22.1152 36.8512 18.6109 41.25 18.6109Z" fill="#AD343E"/>
<path d="M40.6741 41.9139C40.8901 41.9139 41.1086 41.8637 41.3098 41.7568C42.9591 40.8897 44.4065 39.6947 45.5598 38.248C46.7131 36.8012 47.5469 35.1345 48.0082 33.3539C48.0524 33.1848 48.0622 33.0088 48.037 32.8361C48.0118 32.6633 47.9522 32.4971 47.8614 32.347C47.7707 32.1969 47.6507 32.0659 47.5083 31.9615C47.3659 31.8571 47.2039 31.7813 47.0316 31.7385C46.8593 31.6957 46.6801 31.6867 46.5043 31.7121C46.3285 31.7374 46.1595 31.7967 46.007 31.8863C45.8545 31.976 45.7215 32.0943 45.6157 32.2346C45.5099 32.3748 45.4334 32.5342 45.3904 32.7035C45.0221 34.1266 44.356 35.4588 43.4345 36.6151C42.5131 37.7714 41.3565 38.7265 40.0384 39.4196C39.7726 39.5585 39.5618 39.7808 39.4395 40.051C39.3172 40.3213 39.2905 40.6239 39.3636 40.9108C39.4367 41.1976 39.6054 41.4522 39.8429 41.634C40.0804 41.8158 40.373 41.9143 40.6741 41.9139Z" fill="#474747"/>
<path d="M37.4059 44.0064C38.2903 44.0064 39.0072 43.3023 39.0072 42.4337C39.0072 41.5652 38.2903 40.8611 37.4059 40.8611C36.5216 40.8611 35.8047 41.5652 35.8047 42.4337C35.8047 43.3023 36.5216 44.0064 37.4059 44.0064Z" fill="#474747"/>
</g>
<path d="M89.7228 12.8347C92.8517 12.8347 95.1273 13.3467 96.5495 14.3707C97.9717 15.3662 98.6828 16.7173 98.6828 18.424C98.6828 19.9031 98.2135 21.24 97.2748 22.4347C96.3646 23.6293 95.1131 24.6391 93.5202 25.464C91.9273 26.2604 90.1211 26.8151 88.1015 27.128C91.1166 27.3556 93.3211 28.0951 94.7148 29.3467C96.1371 30.5982 96.8482 32.0916 96.8482 33.8267C96.8482 35.3627 96.4784 36.6996 95.7388 37.8373C95.0277 38.9751 94.0464 39.928 92.7948 40.696C91.5717 41.464 90.1353 42.0471 88.4855 42.4453C86.8357 42.8151 85.0864 43 83.2375 43C82.2704 43 81.2037 42.9858 80.0375 42.9573C78.8997 42.9004 77.4917 42.872 75.8135 42.872C75.1024 42.872 74.3628 42.8862 73.5948 42.9147C72.8268 42.9147 72.1015 42.9289 71.4188 42.9573C70.7362 42.9573 70.1531 42.9716 69.6695 43L69.8402 42.1467C70.8073 42.0898 71.5611 41.976 72.1015 41.8053C72.6419 41.6347 73.0686 41.2933 73.3815 40.7813C73.6944 40.2693 73.9788 39.5013 74.2348 38.4773L79.8668 17.3147C80.0659 16.4613 80.1797 15.7787 80.2082 15.2667C80.2366 14.7262 80.0375 14.328 79.6108 14.072C79.2126 13.7876 78.4588 13.6453 77.3495 13.6453L77.5628 12.792C78.0464 12.8204 78.6153 12.8489 79.2695 12.8773C79.9522 12.8773 80.6775 12.8916 81.4455 12.92C82.2135 12.92 82.9246 12.92 83.5788 12.92C84.8019 12.92 85.8828 12.9058 86.8215 12.8773C87.7886 12.8489 88.7557 12.8347 89.7228 12.8347ZM81.7442 27.6827L81.9148 26.9573H85.0722C86.6935 26.9573 88.0731 26.5449 89.2108 25.72C90.3771 24.8667 91.2588 23.7573 91.8562 22.392C92.4819 21.0267 92.7948 19.5902 92.7948 18.0827C92.7948 16.6604 92.5104 15.5653 91.9415 14.7973C91.4011 14.0293 90.4482 13.6453 89.0828 13.6453C88.0873 13.6453 87.3762 13.8444 86.9495 14.2427C86.5228 14.6124 86.1531 15.4231 85.8402 16.6747L80.0802 38.4773C79.9095 39.1884 79.7957 39.8142 79.7388 40.3547C79.7104 40.8951 79.8526 41.3076 80.1655 41.592C80.4784 41.8764 81.0615 42.0187 81.9148 42.0187C83.9344 42.0187 85.5842 41.6347 86.8642 40.8667C88.1442 40.0987 89.0971 39.0462 89.7228 37.7093C90.3486 36.344 90.6615 34.808 90.6615 33.1013C90.6615 32.0489 90.4766 31.1244 90.1068 30.328C89.7655 29.5031 89.2108 28.8631 88.4428 28.408C87.6748 27.9244 86.6508 27.6827 85.3708 27.6827H81.7442ZM106.948 13.6453C107.033 12.5929 107.46 11.7538 108.228 11.128C108.996 10.5022 109.892 10.1893 110.916 10.1893C111.854 10.1893 112.566 10.4596 113.049 11C113.561 11.512 113.774 12.1804 113.689 13.0053C113.604 13.9724 113.177 14.7831 112.409 15.4373C111.641 16.0916 110.745 16.4187 109.721 16.4187C108.782 16.4187 108.057 16.1627 107.545 15.6507C107.062 15.1102 106.862 14.4418 106.948 13.6453ZM105.454 24.6107C105.966 23.0747 105.796 22.3067 104.942 22.3067C104.374 22.3067 103.862 22.6053 103.406 23.2027C102.951 23.7716 102.468 24.696 101.956 25.976L101.23 27.9813H100.42L101.529 24.7813C101.956 23.6436 102.468 22.7618 103.065 22.136C103.662 21.4818 104.331 21.0267 105.07 20.7707C105.81 20.5147 106.535 20.3867 107.246 20.3867C108.242 20.3867 108.996 20.5716 109.508 20.9413C110.02 21.3111 110.361 21.7947 110.532 22.392C110.702 22.9893 110.745 23.6436 110.66 24.3547C110.574 25.0373 110.418 25.7058 110.19 26.36L105.668 39.3733C105.412 40.1413 105.341 40.7244 105.454 41.1227C105.568 41.4924 105.838 41.6773 106.265 41.6773C106.72 41.6773 107.175 41.4356 107.63 40.952C108.114 40.44 108.626 39.4587 109.166 38.008L109.892 36.088H110.702L109.636 39.2027C109.209 40.3404 108.697 41.2364 108.1 41.8907C107.502 42.5164 106.848 42.9573 106.137 43.2133C105.426 43.4693 104.729 43.5973 104.046 43.5973C102.795 43.5973 101.885 43.3271 101.316 42.7867C100.747 42.2178 100.462 41.4498 100.462 40.4827C100.462 39.4871 100.69 38.3493 101.145 37.0693L105.454 24.6107ZM115.269 42.36C115.497 42.4738 115.738 42.5733 115.994 42.6587C116.25 42.7156 116.606 42.744 117.061 42.744C118.142 42.744 119.038 42.4027 119.749 41.72C120.489 41.0089 120.858 40.0276 120.858 38.776C120.858 37.8658 120.659 36.9413 120.261 36.0027C119.891 35.064 119.322 34.0258 118.554 32.888C117.872 31.8924 117.246 30.9111 116.677 29.944C116.137 28.9769 115.866 27.8676 115.866 26.616C115.866 25.3929 116.165 24.3262 116.762 23.416C117.36 22.4773 118.213 21.7378 119.322 21.1973C120.432 20.6569 121.726 20.3867 123.205 20.3867C124.172 20.3867 125.125 20.5004 126.064 20.728C127.002 20.9556 127.77 21.368 128.368 21.9653C128.965 22.5627 129.264 23.4302 129.264 24.568C129.264 24.9662 129.178 25.3929 129.008 25.848C128.837 26.2747 128.581 26.6444 128.24 26.9573C127.898 27.2702 127.443 27.4267 126.874 27.4267C126.277 27.4267 125.779 27.1991 125.381 26.744C124.983 26.2604 124.784 25.6489 124.784 24.9093C124.784 24.2551 124.898 23.6436 125.125 23.0747C125.381 22.5058 125.68 22.008 126.021 21.5813C125.623 21.3538 125.054 21.24 124.314 21.24C123.29 21.24 122.466 21.5671 121.84 22.2213C121.214 22.8756 120.901 23.8 120.901 24.9947C120.901 25.6204 121.001 26.2178 121.2 26.7867C121.427 27.3271 121.726 27.896 122.096 28.4933C122.494 29.0622 122.935 29.7307 123.418 30.4987C124.215 31.7787 124.841 32.9307 125.296 33.9547C125.751 34.9502 125.978 35.9742 125.978 37.0267C125.978 38.2782 125.637 39.4018 124.954 40.3973C124.3 41.3929 123.39 42.1751 122.224 42.744C121.058 43.3129 119.692 43.5973 118.128 43.5973C117.018 43.5973 115.952 43.4409 114.928 43.128C113.932 42.8436 113.107 42.36 112.453 41.6773C111.827 40.9947 111.514 40.056 111.514 38.8613C111.514 38.2071 111.699 37.6098 112.069 37.0693C112.41 36.5004 112.951 36.216 113.69 36.216C114.43 36.216 114.985 36.5147 115.354 37.112C115.724 37.7093 115.909 38.4489 115.909 39.3307C115.909 39.9564 115.824 40.5396 115.653 41.08C115.511 41.592 115.383 42.0187 115.269 42.36ZM146.068 20.984L145.94 21.8373H131.647L131.86 20.984H146.068ZM135.7 39.3733C135.473 40.1698 135.501 40.7529 135.785 41.1227C136.098 41.4924 136.511 41.6773 137.023 41.6773C137.62 41.6773 138.217 41.3929 138.815 40.824C139.441 40.2551 140.009 39.2596 140.521 37.8373L141.161 36.088H141.972L141.119 38.648C140.521 40.4116 139.697 41.6773 138.644 42.4453C137.592 43.2133 136.34 43.5973 134.889 43.5973C133.609 43.5973 132.628 43.3129 131.945 42.744C131.291 42.1751 130.893 41.4071 130.751 40.44C130.637 39.4444 130.765 38.3209 131.135 37.0693L137.577 14.584C138.601 14.5556 139.554 14.4987 140.436 14.4133C141.346 14.328 142.2 14.1858 142.996 13.9867L135.7 39.3733ZM149.92 43H144.672L149.792 24.6107C150.048 23.7573 150.133 23.16 150.048 22.8187C149.963 22.4773 149.707 22.3067 149.28 22.3067C148.74 22.3067 148.242 22.5769 147.787 23.1173C147.332 23.6578 146.862 24.6107 146.379 25.976L145.653 27.9813H144.843L145.952 24.7813C146.35 23.6436 146.848 22.7618 147.445 22.136C148.043 21.4818 148.697 21.0267 149.408 20.7707C150.119 20.5147 150.845 20.3867 151.584 20.3867C152.494 20.3867 153.163 20.5716 153.589 20.9413C154.045 21.3111 154.329 21.7947 154.443 22.392C154.585 22.9893 154.613 23.6436 154.528 24.3547C154.471 25.0373 154.357 25.7058 154.187 26.36L149.92 43ZM160.843 21.368C160.217 21.368 159.577 21.5956 158.923 22.0507C158.269 22.4773 157.586 23.1742 156.875 24.1413C156.164 25.1084 155.438 26.3884 154.699 27.9813C153.988 29.5458 153.248 31.4658 152.48 33.7413C151.712 35.9884 150.944 38.648 150.176 41.72L151.2 36.0453C152.082 33.0587 152.907 30.5698 153.675 28.5787C154.471 26.5591 155.239 24.952 155.979 23.7573C156.747 22.5342 157.557 21.6667 158.411 21.1547C159.264 20.6427 160.189 20.3867 161.184 20.3867C162.208 20.3867 162.99 20.6853 163.531 21.2827C164.1 21.88 164.384 22.6196 164.384 23.5013C164.384 24.2124 164.213 24.8809 163.872 25.5067C163.531 26.104 163.076 26.5876 162.507 26.9573C161.966 27.2987 161.341 27.4693 160.629 27.4693C159.918 27.4693 159.349 27.2844 158.923 26.9147C158.525 26.5449 158.325 26.0044 158.325 25.2933C158.325 24.6676 158.468 24.0987 158.752 23.5867C159.037 23.0747 159.406 22.648 159.861 22.3067C160.317 21.9369 160.814 21.6809 161.355 21.5387C161.298 21.4818 161.227 21.4391 161.141 21.4107C161.056 21.3822 160.957 21.368 160.843 21.368ZM175.822 21.24C175.083 21.24 174.329 21.624 173.561 22.392C172.793 23.1316 172.067 24.1556 171.385 25.464C170.702 26.744 170.076 28.1804 169.507 29.7733C168.967 31.3662 168.54 33.016 168.227 34.7227C167.915 36.4009 167.758 38.008 167.758 39.544C167.758 40.6818 167.9 41.5067 168.185 42.0187C168.498 42.5022 168.953 42.744 169.55 42.744C170.261 42.744 171.001 42.3742 171.769 41.6347C172.537 40.8951 173.262 39.8996 173.945 38.648C174.656 37.368 175.282 35.9458 175.822 34.3813C176.363 32.7884 176.789 31.1387 177.102 29.432C177.415 27.7253 177.571 26.0613 177.571 24.44C177.571 23.2453 177.415 22.4204 177.102 21.9653C176.818 21.4818 176.391 21.24 175.822 21.24ZM162.723 36.6853C162.723 35.4053 162.894 34.0258 163.235 32.5467C163.605 31.0676 164.146 29.6169 164.857 28.1947C165.568 26.744 166.45 25.4356 167.502 24.2693C168.583 23.0747 169.835 22.136 171.257 21.4533C172.679 20.7422 174.286 20.3867 176.078 20.3867C178.126 20.3867 179.719 20.9698 180.857 22.136C182.023 23.2738 182.606 24.9947 182.606 27.2987C182.606 28.5787 182.421 29.9582 182.051 31.4373C181.71 32.9164 181.184 34.3813 180.473 35.832C179.762 37.2542 178.866 38.5627 177.785 39.7573C176.732 40.9236 175.495 41.8622 174.073 42.5733C172.651 43.256 171.043 43.5973 169.251 43.5973C167.203 43.5973 165.596 43.0142 164.43 41.848C163.292 40.6818 162.723 38.9609 162.723 36.6853ZM212.548 12.8347C215.677 12.8347 217.952 13.3467 219.375 14.3707C220.797 15.3662 221.508 16.7173 221.508 18.424C221.508 19.9031 221.039 21.24 220.1 22.4347C219.19 23.6293 217.938 24.6391 216.345 25.464C214.752 26.2604 212.946 26.8151 210.927 27.128C213.942 27.3556 216.146 28.0951 217.54 29.3467C218.962 30.5982 219.673 32.0916 219.673 33.8267C219.673 35.3627 219.303 36.6996 218.564 37.8373C217.853 38.9751 216.871 39.928 215.62 40.696C214.397 41.464 212.96 42.0471 211.311 42.4453C209.661 42.8151 207.911 43 206.063 43C205.095 43 204.029 42.9858 202.863 42.9573C201.725 42.9004 200.317 42.872 198.639 42.872C197.927 42.872 197.188 42.8862 196.42 42.9147C195.652 42.9147 194.927 42.9289 194.244 42.9573C193.561 42.9573 192.978 42.9716 192.495 43L192.665 42.1467C193.632 42.0898 194.386 41.976 194.927 41.8053C195.467 41.6347 195.894 41.2933 196.207 40.7813C196.519 40.2693 196.804 39.5013 197.06 38.4773L202.692 17.3147C202.891 16.4613 203.005 15.7787 203.033 15.2667C203.062 14.7262 202.863 14.328 202.436 14.072C202.038 13.7876 201.284 13.6453 200.175 13.6453L200.388 12.792C200.871 12.8204 201.44 12.8489 202.095 12.8773C202.777 12.8773 203.503 12.8916 204.271 12.92C205.039 12.92 205.75 12.92 206.404 12.92C207.627 12.92 208.708 12.9058 209.647 12.8773C210.614 12.8489 211.581 12.8347 212.548 12.8347ZM204.569 27.6827L204.74 26.9573H207.897C209.519 26.9573 210.898 26.5449 212.036 25.72C213.202 24.8667 214.084 23.7573 214.681 22.392C215.307 21.0267 215.62 19.5902 215.62 18.0827C215.62 16.6604 215.335 15.5653 214.767 14.7973C214.226 14.0293 213.273 13.6453 211.908 13.6453C210.912 13.6453 210.201 13.8444 209.775 14.2427C209.348 14.6124 208.978 15.4231 208.665 16.6747L202.905 38.4773C202.735 39.1884 202.621 39.8142 202.564 40.3547C202.535 40.8951 202.678 41.3076 202.991 41.592C203.303 41.8764 203.887 42.0187 204.74 42.0187C206.759 42.0187 208.409 41.6347 209.689 40.8667C210.969 40.0987 211.922 39.0462 212.548 37.7093C213.174 36.344 213.487 34.808 213.487 33.1013C213.487 32.0489 213.302 31.1244 212.932 30.328C212.591 29.5031 212.036 28.8631 211.268 28.408C210.5 27.9244 209.476 27.6827 208.196 27.6827H204.569ZM227.554 39.3733C227.327 40.1413 227.27 40.7244 227.384 41.1227C227.526 41.4924 227.81 41.6773 228.237 41.6773C228.635 41.6773 229.062 41.4356 229.517 40.952C230 40.44 230.512 39.4587 231.053 38.008L231.736 36.088H232.546L231.48 39.2027C231.081 40.3404 230.584 41.2364 229.986 41.8907C229.389 42.5164 228.749 42.9573 228.066 43.2133C227.384 43.4693 226.687 43.5973 225.976 43.5973C225.065 43.5973 224.34 43.4267 223.8 43.0853C223.259 42.744 222.889 42.2747 222.69 41.6773C222.491 41.08 222.42 40.3973 222.477 39.6293C222.534 38.8329 222.704 37.9796 222.989 37.0693L229.773 14.5413C230.057 13.5742 230.029 12.8631 229.688 12.408C229.346 11.9529 228.479 11.7253 227.085 11.7253L227.384 10.8293C229.232 10.8009 230.882 10.6444 232.333 10.36C233.784 10.0471 235.177 9.62044 236.514 9.08L227.554 39.3733ZM241.873 13.6453C241.958 12.5929 242.385 11.7538 243.153 11.128C243.921 10.5022 244.817 10.1893 245.841 10.1893C246.779 10.1893 247.491 10.4596 247.974 11C248.486 11.512 248.699 12.1804 248.614 13.0053C248.529 13.9724 248.102 14.7831 247.334 15.4373C246.566 16.0916 245.67 16.4187 244.646 16.4187C243.707 16.4187 242.982 16.1627 242.47 15.6507C241.987 15.1102 241.787 14.4418 241.873 13.6453ZM240.379 24.6107C240.891 23.0747 240.721 22.3067 239.867 22.3067C239.299 22.3067 238.787 22.6053 238.331 23.2027C237.876 23.7716 237.393 24.696 236.881 25.976L236.155 27.9813H235.345L236.454 24.7813C236.881 23.6436 237.393 22.7618 237.99 22.136C238.587 21.4818 239.256 21.0267 239.995 20.7707C240.735 20.5147 241.46 20.3867 242.171 20.3867C243.167 20.3867 243.921 20.5716 244.433 20.9413C244.945 21.3111 245.286 21.7947 245.457 22.392C245.627 22.9893 245.67 23.6436 245.585 24.3547C245.499 25.0373 245.343 25.7058 245.115 26.36L240.593 39.3733C240.337 40.1413 240.266 40.7244 240.379 41.1227C240.493 41.4924 240.763 41.6773 241.19 41.6773C241.645 41.6773 242.1 41.4356 242.555 40.952C243.039 40.44 243.551 39.4587 244.091 38.008L244.817 36.088H245.627L244.561 39.2027C244.134 40.3404 243.622 41.2364 243.025 41.8907C242.427 42.5164 241.773 42.9573 241.062 43.2133C240.351 43.4693 239.654 43.5973 238.971 43.5973C237.72 43.5973 236.81 43.3271 236.241 42.7867C235.672 42.2178 235.387 41.4498 235.387 40.4827C235.387 39.4871 235.615 38.3493 236.07 37.0693L240.379 24.6107ZM250.194 42.36C250.422 42.4738 250.664 42.5733 250.92 42.6587C251.176 42.7156 251.531 42.744 251.986 42.744C253.067 42.744 253.963 42.4027 254.674 41.72C255.414 41.0089 255.784 40.0276 255.784 38.776C255.784 37.8658 255.584 36.9413 255.186 36.0027C254.816 35.064 254.248 34.0258 253.48 32.888C252.797 31.8924 252.171 30.9111 251.602 29.944C251.062 28.9769 250.792 27.8676 250.792 26.616C250.792 25.3929 251.09 24.3262 251.688 23.416C252.285 22.4773 253.138 21.7378 254.248 21.1973C255.357 20.6569 256.651 20.3867 258.13 20.3867C259.097 20.3867 260.05 20.5004 260.989 20.728C261.928 20.9556 262.696 21.368 263.293 21.9653C263.89 22.5627 264.189 23.4302 264.189 24.568C264.189 24.9662 264.104 25.3929 263.933 25.848C263.762 26.2747 263.506 26.6444 263.165 26.9573C262.824 27.2702 262.368 27.4267 261.8 27.4267C261.202 27.4267 260.704 27.1991 260.306 26.744C259.908 26.2604 259.709 25.6489 259.709 24.9093C259.709 24.2551 259.823 23.6436 260.05 23.0747C260.306 22.5058 260.605 22.008 260.946 21.5813C260.548 21.3538 259.979 21.24 259.24 21.24C258.216 21.24 257.391 21.5671 256.765 22.2213C256.139 22.8756 255.826 23.8 255.826 24.9947C255.826 25.6204 255.926 26.2178 256.125 26.7867C256.352 27.3271 256.651 27.896 257.021 28.4933C257.419 29.0622 257.86 29.7307 258.344 30.4987C259.14 31.7787 259.766 32.9307 260.221 33.9547C260.676 34.9502 260.904 35.9742 260.904 37.0267C260.904 38.2782 260.562 39.4018 259.88 40.3973C259.225 41.3929 258.315 42.1751 257.149 42.744C255.983 43.3129 254.617 43.5973 253.053 43.5973C251.944 43.5973 250.877 43.4409 249.853 43.128C248.857 42.8436 248.032 42.36 247.378 41.6773C246.752 40.9947 246.44 40.056 246.44 38.8613C246.44 38.2071 246.624 37.6098 246.994 37.0693C247.336 36.5004 247.876 36.216 248.616 36.216C249.355 36.216 249.91 36.5147 250.28 37.112C250.649 37.7093 250.834 38.4489 250.834 39.3307C250.834 39.9564 250.749 40.5396 250.578 41.08C250.436 41.592 250.308 42.0187 250.194 42.36ZM267.169 42.36C267.397 42.4738 267.638 42.5733 267.894 42.6587C268.15 42.7156 268.506 42.744 268.961 42.744C270.042 42.744 270.938 42.4027 271.649 41.72C272.389 41.0089 272.758 40.0276 272.758 38.776C272.758 37.8658 272.559 36.9413 272.161 36.0027C271.791 35.064 271.222 34.0258 270.454 32.888C269.772 31.8924 269.146 30.9111 268.577 29.944C268.037 28.9769 267.766 27.8676 267.766 26.616C267.766 25.3929 268.065 24.3262 268.662 23.416C269.26 22.4773 270.113 21.7378 271.222 21.1973C272.332 20.6569 273.626 20.3867 275.105 20.3867C276.072 20.3867 277.025 20.5004 277.964 20.728C278.902 20.9556 279.67 21.368 280.268 21.9653C280.865 22.5627 281.164 23.4302 281.164 24.568C281.164 24.9662 281.078 25.3929 280.908 25.848C280.737 26.2747 280.481 26.6444 280.14 26.9573C279.798 27.2702 279.343 27.4267 278.774 27.4267C278.177 27.4267 277.679 27.1991 277.281 26.744C276.883 26.2604 276.684 25.6489 276.684 24.9093C276.684 24.2551 276.798 23.6436 277.025 23.0747C277.281 22.5058 277.58 22.008 277.921 21.5813C277.523 21.3538 276.954 21.24 276.214 21.24C275.19 21.24 274.366 21.5671 273.74 22.2213C273.114 22.8756 272.801 23.8 272.801 24.9947C272.801 25.6204 272.901 26.2178 273.1 26.7867C273.327 27.3271 273.626 27.896 273.996 28.4933C274.394 29.0622 274.835 29.7307 275.318 30.4987C276.115 31.7787 276.741 32.9307 277.196 33.9547C277.651 34.9502 277.878 35.9742 277.878 37.0267C277.878 38.2782 277.537 39.4018 276.854 40.3973C276.2 41.3929 275.29 42.1751 274.124 42.744C272.958 43.3129 271.592 43.5973 270.028 43.5973C268.918 43.5973 267.852 43.4409 266.828 43.128C265.832 42.8436 265.007 42.36 264.353 41.6773C263.727 40.9947 263.414 40.056 263.414 38.8613C263.414 38.2071 263.599 37.6098 263.969 37.0693C264.31 36.5004 264.851 36.216 265.59 36.216C266.33 36.216 266.885 36.5147 267.254 37.112C267.624 37.7093 267.809 38.4489 267.809 39.3307C267.809 39.9564 267.724 40.5396 267.553 41.08C267.411 41.592 267.283 42.0187 267.169 42.36Z" fill="#474747"/>
<defs>
<clipPath id="clip0_8_1949">
<rect width="56" height="55" fill="white" transform="translate(1.5 -1)"/>
</clipPath>
</defs>
</svg>
